<?xml version="1.0" encoding="UTF-8"?>
<svg id="Layer_1" data-name="Layer 1" xmlns="http://www.w3.org/2000/svg" viewBox="505.9 461 908.2 158">
  <defs>
    <style>
      .cls-1 {
        fill: #fff;
      }
    </style>
  </defs>
  <g>
    <path class="cls-1" d="M1336.94,461v68.14h-87.56v-68.14h-20.16v157.59h20.16v-71.68h87.56v71.68h20.15v-157.59h-20.15ZM1086.23,461v17.76h54.87v139.83h20.15v-139.83h54.86v-17.76h-129.87ZM1052.94,461.22v122.53l-98.52-122.75h-15.67v157.59h20.15v-120.3l97.18,120.3h17.03v-157.37h-20.16ZM898.91,461v157.59h20.16v-157.59h-20.16ZM859.09,461.22v122.53l-98.52-122.75h-15.67v157.59h20.15v-120.3l97.18,120.3h17.01v-157.37h-20.15Z"/>
    <path class="cls-1" d="M1395.46,461c-10.28,0-18.63,8.34-18.63,18.64s8.34,18.63,18.63,18.63,18.63-8.34,18.63-18.63-8.34-18.64-18.63-18.64ZM1395.46,494.33c-8.11,0-14.69-6.6-14.69-14.69s6.58-14.7,14.69-14.7,14.69,6.6,14.69,14.7-6.58,14.69-14.69,14.69Z"/>
  </g>
  <g>
    <rect class="cls-1" x="505.92" y="610.04" width="208.73" height="8.96"/>
    <rect class="cls-1" x="505.96" y="591.51" width="208.73" height="7.97"/>
    <rect class="cls-1" x="506.01" y="572.97" width="208.73" height="6.97"/>
    <rect class="cls-1" x="506.06" y="554.44" width="208.73" height="5.97"/>
    <rect class="cls-1" x="506.1" y="535.91" width="208.73" height="4.98"/>
    <rect class="cls-1" x="506.15" y="517.38" width="208.73" height="3.98"/>
    <rect class="cls-1" x="506.2" y="498.85" width="208.73" height="2.99"/>
    <rect class="cls-1" x="506.24" y="480.31" width="208.73" height="1.99"/>
    <rect class="cls-1" x="506.29" y="461.78" width="208.73" height="1"/>
  </g>
</svg>