<svg width="268" height="268" viewBox="0 0 268 268" fill="none" xmlns="http://www.w3.org/2000/svg">
<line x1="133.964" y1="2.21423" x2="133.964" y2="10.2142" stroke="#9DEDFF" stroke-width="0.5"/>
<line x1="133.964" y1="257.214" x2="133.964" y2="265.214" stroke="#9DEDFF" stroke-width="0.5"/>
<line x1="265.214" y1="133.964" x2="257.214" y2="133.964" stroke="#9DEDFF" stroke-width="0.5"/>
<line x1="10.2142" y1="133.964" x2="2.21423" y2="133.964" stroke="#9DEDFF" stroke-width="0.5"/>
<line x1="199.681" y1="19.9569" x2="195.681" y2="26.8851" stroke="#9DEDFF" stroke-width="0.5"/>
<line x1="72.1807" y1="240.793" x2="68.1807" y2="247.722" stroke="#9DEDFF" stroke-width="0.5"/>
<line x1="247.472" y1="199.681" x2="240.543" y2="195.681" stroke="#9DEDFF" stroke-width="0.5"/>
<line x1="26.6351" y1="72.1807" x2="19.7069" y2="68.1807" stroke="#9DEDFF" stroke-width="0.5"/>
<line x1="247.722" y1="68.1807" x2="240.793" y2="72.1807" stroke="#9DEDFF" stroke-width="0.5"/>
<line x1="26.8851" y1="195.681" x2="19.9569" y2="199.681" stroke="#9DEDFF" stroke-width="0.5"/>
<line x1="199.248" y1="247.722" x2="195.248" y2="240.793" stroke="#9DEDFF" stroke-width="0.5"/>
<line x1="71.7477" y1="26.8851" x2="67.7477" y2="19.9569" stroke="#9DEDFF" stroke-width="0.5"/>
<line x1="161.299" y1="5.13975" x2="160.468" y2="9.05234" stroke="white" stroke-opacity="0.21" stroke-width="0.5"/>
<line x1="107.45" y1="258.48" x2="106.618" y2="262.393" stroke="white" stroke-opacity="0.21" stroke-width="0.5"/>
<line x1="262.289" y1="161.299" x2="258.376" y2="160.467" stroke="white" stroke-opacity="0.21" stroke-width="0.5"/>
<line x1="8.94839" y1="107.45" x2="5.0358" y2="106.618" stroke="white" stroke-opacity="0.21" stroke-width="0.5"/>
<line x1="174.588" y1="8.72752" x2="173.352" y2="12.5317" stroke="white" stroke-opacity="0.21" stroke-width="0.5"/>
<line x1="94.5523" y1="255.051" x2="93.3163" y2="258.855" stroke="white" stroke-opacity="0.21" stroke-width="0.5"/>
<line x1="258.701" y1="174.588" x2="254.897" y2="173.352" stroke="white" stroke-opacity="0.21" stroke-width="0.5"/>
<line x1="12.3772" y1="94.5523" x2="8.57299" y2="93.3163" stroke="white" stroke-opacity="0.21" stroke-width="0.5"/>
<line x1="187.428" y1="13.6847" x2="185.802" y2="17.3389" stroke="white" stroke-opacity="0.21" stroke-width="0.5"/>
<line x1="82.0837" y1="250.293" x2="80.4568" y2="253.947" stroke="white" stroke-opacity="0.21" stroke-width="0.5"/>
<line x1="253.744" y1="187.429" x2="250.09" y2="185.802" stroke="white" stroke-opacity="0.21" stroke-width="0.5"/>
<line x1="17.1355" y1="82.0837" x2="13.4813" y2="80.4568" stroke="white" stroke-opacity="0.21" stroke-width="0.5"/>
<line x1="211.21" y1="27.4754" x2="208.859" y2="30.7115" stroke="white" stroke-opacity="0.21" stroke-width="0.5"/>
<line x1="58.9739" y1="237.011" x2="56.6227" y2="240.247" stroke="white" stroke-opacity="0.21" stroke-width="0.5"/>
<line x1="239.953" y1="211.21" x2="236.717" y2="208.859" stroke="white" stroke-opacity="0.21" stroke-width="0.5"/>
<line x1="30.4176" y1="58.9737" x2="27.1816" y2="56.6226" stroke="white" stroke-opacity="0.21" stroke-width="0.5"/>
<line x1="221.891" y1="36.158" x2="219.214" y2="39.1306" stroke="white" stroke-opacity="0.21" stroke-width="0.5"/>
<line x1="48.5858" y1="228.632" x2="45.9093" y2="231.605" stroke="white" stroke-opacity="0.21" stroke-width="0.5"/>
<line x1="231.27" y1="221.891" x2="228.298" y2="219.214" stroke="white" stroke-opacity="0.21" stroke-width="0.5"/>
<line x1="38.796" y1="48.5858" x2="35.8234" y2="45.9093" stroke="white" stroke-opacity="0.21" stroke-width="0.5"/>
<line x1="231.605" y1="45.9093" x2="228.633" y2="48.5858" stroke="white" stroke-opacity="0.21" stroke-width="0.5"/>
<line x1="39.1305" y1="219.214" x2="36.158" y2="221.891" stroke="white" stroke-opacity="0.21" stroke-width="0.5"/>
<line x1="221.519" y1="231.605" x2="218.843" y2="228.632" stroke="white" stroke-opacity="0.21" stroke-width="0.5"/>
<line x1="48.2144" y1="39.1305" x2="45.5378" y2="36.158" stroke="white" stroke-opacity="0.21" stroke-width="0.5"/>
<line x1="240.247" y1="56.6227" x2="237.011" y2="58.9738" stroke="white" stroke-opacity="0.21" stroke-width="0.5"/>
<line x1="30.7115" y1="208.859" x2="27.4755" y2="211.21" stroke="white" stroke-opacity="0.21" stroke-width="0.5"/>
<line x1="210.806" y1="240.247" x2="208.455" y2="237.011" stroke="white" stroke-opacity="0.21" stroke-width="0.5"/>
<line x1="58.5695" y1="30.7114" x2="56.2183" y2="27.4753" stroke="white" stroke-opacity="0.21" stroke-width="0.5"/>
<line x1="253.947" y1="80.4568" x2="250.293" y2="82.0837" stroke="white" stroke-opacity="0.21" stroke-width="0.5"/>
<line x1="17.3389" y1="185.802" x2="13.6847" y2="187.429" stroke="white" stroke-opacity="0.21" stroke-width="0.5"/>
<line x1="186.972" y1="253.947" x2="185.345" y2="250.293" stroke="white" stroke-opacity="0.21" stroke-width="0.5"/>
<line x1="81.627" y1="17.3389" x2="80" y2="13.6847" stroke="white" stroke-opacity="0.21" stroke-width="0.5"/>
<line x1="258.855" y1="93.3163" x2="255.051" y2="94.5523" stroke="white" stroke-opacity="0.21" stroke-width="0.5"/>
<line x1="12.5318" y1="173.352" x2="8.72762" y2="174.588" stroke="white" stroke-opacity="0.21" stroke-width="0.5"/>
<line x1="174.112" y1="258.855" x2="172.876" y2="255.051" stroke="white" stroke-opacity="0.21" stroke-width="0.5"/>
<line x1="94.0768" y1="12.5317" x2="92.8407" y2="8.7275" stroke="white" stroke-opacity="0.21" stroke-width="0.5"/>
<line x1="262.393" y1="106.618" x2="258.48" y2="107.45" stroke="white" stroke-opacity="0.21" stroke-width="0.5"/>
<line x1="9.05234" y1="160.468" x2="5.13975" y2="161.299" stroke="white" stroke-opacity="0.21" stroke-width="0.5"/>
<line x1="160.81" y1="262.393" x2="159.978" y2="258.48" stroke="white" stroke-opacity="0.21" stroke-width="0.5"/>
<line x1="106.961" y1="9.05234" x2="106.129" y2="5.13975" stroke="white" stroke-opacity="0.21" stroke-width="0.5"/>
<line x1="264.52" y1="120.217" x2="260.542" y2="120.635" stroke="white" stroke-opacity="0.21" stroke-width="0.5"/>
<line x1="6.9391" y1="147.29" x2="2.96101" y2="147.708" stroke="white" stroke-opacity="0.21" stroke-width="0.5"/>
<line x1="147.211" y1="264.52" x2="146.793" y2="260.542" stroke="white" stroke-opacity="0.21" stroke-width="0.5"/>
<line x1="120.138" y1="6.93885" x2="119.72" y2="2.96076" stroke="white" stroke-opacity="0.21" stroke-width="0.5"/>
<line x1="147.708" y1="2.9607" x2="147.29" y2="6.93879" stroke="white" stroke-opacity="0.21" stroke-width="0.5"/>
<line x1="120.636" y1="260.542" x2="120.217" y2="264.52" stroke="white" stroke-opacity="0.21" stroke-width="0.5"/>
<line x1="264.468" y1="147.708" x2="260.49" y2="147.29" stroke="white" stroke-opacity="0.21" stroke-width="0.5"/>
<line x1="6.88659" y1="120.635" x2="2.9085" y2="120.217" stroke="white" stroke-opacity="0.21" stroke-width="0.5"/>
</svg>
